<svg width="44" height="50" viewBox="0 0 44 50" fill="none" xmlns="http://www.w3.org/2000/svg" xmlns:xlink="http://www.w3.org/1999/xlink">
<path d="M21.875,50C25.324,50 28.122,47.202 28.122,43.75L15.628,43.75C15.628,47.202 18.426,50 21.875,50ZM42.909,35.38C41.023,33.353 37.492,30.303 37.492,20.312C37.492,12.725 32.172,6.65 24.998,5.16L24.998,3.125C24.998,1.399 23.6,0 21.875,0C20.15,0 18.752,1.399 18.752,3.125L18.752,5.16C11.578,6.65 6.258,12.725 6.258,20.312C6.258,30.303 2.728,33.353 0.841,35.38C0.255,36.01 -0.005,36.763 0,37.5C0.011,39.102 1.268,40.625 3.135,40.625L40.615,40.625C42.482,40.625 43.74,39.102 43.75,37.5C43.755,36.763 43.495,36.009 42.909,35.38Z" fill="#686666"/>
<path d="M44,11C44,15.971 40.418,20 36,20C31.582,20 28,15.971 28,11C28,6.029 31.582,2 36,2C40.418,2 44,6.029 44,11Z" fill="#DD1414"/>
</svg>
