<svg width="54" height="62" viewBox="0 0 54 62" fill="none" xmlns="http://www.w3.org/2000/svg" xmlns:xlink="http://www.w3.org/1999/xlink">
<path d="M15.068,12.857C16.725,12.857 18.068,11.514 18.068,9.857C18.068,8.201 16.725,6.857 15.068,6.857L15.068,12.857ZM23.676,60C25.333,60 26.676,58.657 26.676,57C26.676,55.343 25.333,54 23.676,54L23.676,60ZM15.068,6.857L8.919,6.857L8.919,12.857L15.068,12.857L15.068,6.857ZM8.919,6.857C4.371,6.857 1,10.726 1,15.096L7,15.096C7,13.679 8.034,12.857 8.919,12.857L8.919,6.857ZM1,15.096L1,51.762L7,51.762L7,15.096L1,15.096ZM1,51.762C1,56.132 4.371,60 8.919,60L8.919,54C8.034,54 7,53.179 7,51.762L1,51.762ZM8.919,60L23.676,60L23.676,54L8.919,54L8.919,60Z" fill="#FFFFFF"/>
<path d="M32.285,6.857C30.628,6.857 29.285,8.201 29.285,9.857C29.285,11.514 30.628,12.857 32.285,12.857L32.285,6.857ZM40.352,38.667C40.352,40.324 41.696,41.667 43.352,41.667C45.009,41.667 46.352,40.324 46.352,38.667L40.352,38.667ZM32.285,12.857L38.433,12.857L38.433,6.857L32.285,6.857L32.285,12.857ZM38.433,12.857C39.318,12.857 40.352,13.679 40.352,15.096L46.352,15.096C46.352,10.726 42.982,6.857 38.433,6.857L38.433,12.857ZM40.352,15.096L40.352,38.667L46.352,38.667L46.352,15.096L40.352,15.096Z" fill="#FFFFFF"/>
<path d="M16.424,8.558L19.385,9.041L19.385,9.041L16.424,8.558ZM30.928,8.558L33.889,8.075L33.889,8.075L30.928,8.558ZM16.838,16.143L16.838,11.167L10.838,11.167L10.838,16.143L16.838,16.143ZM16.838,11.167C16.838,11.92 16.22,12.857 15.068,12.857L15.068,6.857C12.557,6.857 10.838,8.967 10.838,11.167L16.838,11.167ZM15.068,12.857C17.582,12.857 19.096,10.813 19.385,9.041L13.464,8.075C13.505,7.819 13.627,7.559 13.854,7.336C14.09,7.104 14.508,6.857 15.068,6.857L15.068,12.857ZM19.385,9.041C19.528,8.164 19.852,7.1 20.481,6.31C21.001,5.657 21.863,5 23.676,5L23.676,-1C20.014,-1 17.432,0.506 15.787,2.574C14.249,4.505 13.685,6.72 13.464,8.075L19.385,9.041ZM23.676,5C25.489,5 26.351,5.657 26.871,6.31C27.5,7.1 27.824,8.164 27.967,9.042L33.889,8.075C33.668,6.72 33.103,4.505 31.566,2.574C29.92,0.506 27.338,-1 23.676,-1L23.676,5ZM27.967,9.041C28.257,10.813 29.771,12.857 32.285,12.857L32.285,6.857C32.844,6.857 33.263,7.104 33.499,7.336C33.726,7.559 33.847,7.819 33.889,8.075L27.967,9.041ZM32.285,12.857C31.132,12.857 30.514,11.92 30.514,11.167L36.514,11.167C36.514,8.967 34.795,6.857 32.285,6.857L32.285,12.857ZM30.514,11.167L30.514,16.143L36.514,16.143L36.514,11.167L30.514,11.167ZM30.514,16.143C30.514,15.534 31.022,14.714 32.039,14.714L32.039,20.714C34.686,20.714 36.514,18.487 36.514,16.143L30.514,16.143ZM32.039,14.714L15.314,14.714L15.314,20.714L32.039,20.714L32.039,14.714ZM15.314,14.714C16.33,14.714 16.838,15.534 16.838,16.143L10.838,16.143C10.838,18.487 12.667,20.714 15.314,20.714L15.314,14.714Z" fill="#FFFFFF"/>
<path d="M34.471,51.017C33.337,49.81 31.439,49.75 30.231,50.884C29.023,52.018 28.963,53.917 30.098,55.125L34.471,51.017ZM37.204,58.309L35.017,60.363C35.584,60.967 36.375,61.309 37.204,61.309C38.032,61.309 38.823,60.967 39.39,60.363L37.204,58.309ZM51.688,47.268C52.822,46.06 52.763,44.161 51.555,43.027C50.347,41.893 48.449,41.952 47.314,43.16L51.688,47.268ZM30.098,55.125L35.017,60.363L39.39,56.255L34.471,51.017L30.098,55.125ZM39.39,60.363L51.688,47.268L47.314,43.16L35.017,56.255L39.39,60.363Z" fill="#FFFFFF"/>
</svg>
