<svg width="48" height="44" viewBox="0 0 48 44" fill="none" xmlns="http://www.w3.org/2000/svg" xmlns:xlink="http://www.w3.org/1999/xlink">
<path d="M23.159,2.285L21.303,-0.072L21.303,-0.072L23.159,2.285ZM24.841,2.285L26.697,-0.072L26.697,-0.072L24.841,2.285ZM29.007,5.565L27.151,7.922L27.151,7.922L29.007,5.565ZM29.959,5.845L30.196,8.836L30.196,8.836L29.959,5.845ZM35.456,5.411L35.693,8.402L35.693,8.402L35.456,5.411ZM36.818,6.307L39.725,5.566L39.724,5.565L36.818,6.307ZM38.06,11.18L35.154,11.921L35.154,11.923L38.06,11.18ZM38.649,11.914L40.085,9.28L40.085,9.28L38.649,11.914ZM43.378,14.492L44.814,11.857L44.814,11.857L43.378,14.492ZM43.898,15.942L41.181,14.67L41.181,14.671L43.898,15.942ZM41.744,20.546L39.026,19.275L39.026,19.275L41.744,20.546ZM41.744,21.454L39.026,22.725L39.026,22.725L41.744,21.454ZM43.898,26.058L41.181,27.329L41.181,27.33L43.898,26.058ZM43.378,27.509L44.814,30.143L44.814,30.143L43.378,27.509ZM38.649,30.086L40.085,32.72L40.085,32.72L38.649,30.086ZM38.06,30.82L35.154,30.078L35.154,30.079L38.06,30.82ZM36.818,35.693L39.724,36.435L39.725,36.434L36.818,35.693ZM35.456,36.589L35.693,33.598L35.693,33.598L35.456,36.589ZM29.959,36.155L29.722,39.145L29.723,39.145L29.959,36.155ZM29.007,36.435L27.152,34.077L27.151,34.078L29.007,36.435ZM24.841,39.715L26.697,42.073L26.697,42.072L24.841,39.715ZM23.159,39.715L21.303,42.072L21.303,42.073L23.159,39.715ZM18.993,36.435L20.849,34.078L20.849,34.078L18.993,36.435ZM18.041,36.155L18.277,39.145L18.278,39.145L18.041,36.155ZM12.544,36.589L12.307,33.598L12.307,33.598L12.544,36.589ZM11.182,35.693L14.089,34.951L14.089,34.951L11.182,35.693ZM9.94,30.82L7.033,31.561L7.033,31.562L9.94,30.82ZM9.351,30.086L7.915,32.72L7.915,32.72L9.351,30.086ZM4.622,27.509L3.186,30.143L3.186,30.143L4.622,27.509ZM4.102,26.058L6.819,27.33L6.819,27.33L4.102,26.058ZM6.256,21.454L8.974,22.726L8.974,22.725L6.256,21.454ZM6.256,20.546L8.974,19.275L8.974,19.275L6.256,20.546ZM4.102,15.942L6.819,14.67L6.819,14.67L4.102,15.942ZM4.622,14.492L6.058,17.126L6.058,17.126L4.622,14.492ZM9.351,11.914L10.786,14.549L10.786,14.549L9.351,11.914ZM9.94,11.18L7.033,10.438L7.033,10.439L9.94,11.18ZM11.182,6.307L14.089,7.049L14.089,7.049L11.182,6.307ZM12.544,5.411L12.307,8.402L12.307,8.402L12.544,5.411ZM18.041,5.845L17.804,8.836L17.804,8.836L18.041,5.845ZM18.993,5.565L17.137,3.208L17.137,3.208L18.993,5.565ZM25.015,4.642C24.687,4.9 24.321,5 24,5C23.679,5 23.313,4.9 22.985,4.642L26.697,-0.072C25.126,-1.309 22.874,-1.309 21.303,-0.072L25.015,4.642ZM22.985,4.642L27.151,7.922L30.863,3.208L26.697,-0.072L22.985,4.642ZM27.151,7.922C28.032,8.615 29.13,8.92 30.196,8.836L29.723,2.855C30.096,2.825 30.507,2.927 30.862,3.208L27.151,7.922ZM30.196,8.836L35.693,8.402L35.22,2.42L29.723,2.855L30.196,8.836ZM35.693,8.402C35.08,8.45 34.177,8.091 33.911,7.049L39.724,5.565C39.17,3.395 37.106,2.271 35.22,2.42L35.693,8.402ZM33.911,7.049L35.154,11.921L40.967,10.439L39.725,5.566L33.911,7.049ZM35.154,11.923C35.454,13.098 36.241,14.019 37.214,14.549L40.085,9.28C40.462,9.486 40.824,9.876 40.967,10.437L35.154,11.923ZM37.214,14.549L41.943,17.126L44.814,11.857L40.085,9.28L37.214,14.549ZM41.943,17.126C41.231,16.738 40.696,15.706 41.181,14.67L46.615,17.214C47.599,15.111 46.621,12.842 44.814,11.857L41.943,17.126ZM41.181,14.671L39.026,19.275L44.461,21.817L46.615,17.213L41.181,14.671ZM39.026,19.275C38.514,20.371 38.514,21.629 39.026,22.725L44.461,20.183C44.702,20.698 44.702,21.302 44.461,21.817L39.026,19.275ZM39.026,22.725L41.181,27.329L46.615,24.787L44.461,20.183L39.026,22.725ZM41.181,27.33C40.696,26.294 41.231,25.262 41.942,24.874L44.814,30.143C46.621,29.158 47.599,26.889 46.615,24.786L41.181,27.33ZM41.943,24.874L37.214,27.451L40.085,32.72L44.814,30.143L41.943,24.874ZM37.214,27.451C36.241,27.982 35.454,28.902 35.154,30.078L40.967,31.563C40.824,32.124 40.462,32.514 40.085,32.72L37.214,27.451ZM35.154,30.079L33.911,34.951L39.725,36.434L40.967,31.562L35.154,30.079ZM33.911,34.951C34.177,33.91 35.08,33.55 35.693,33.598L35.22,39.58C37.106,39.729 39.17,38.605 39.724,36.435L33.911,34.951ZM35.693,33.598L30.196,33.164L29.723,39.145L35.22,39.58L35.693,33.598ZM30.197,33.164C29.13,33.079 28.032,33.385 27.152,34.077L30.862,38.793C30.507,39.072 30.096,39.175 29.722,39.145L30.197,33.164ZM27.151,34.078L22.985,37.358L26.697,42.072L30.863,38.792L27.151,34.078ZM22.986,37.358C23.313,37.1 23.679,37 24,37C24.321,37 24.687,37.1 25.014,37.358L21.303,42.073C22.874,43.309 25.126,43.309 26.697,42.073L22.986,37.358ZM25.015,37.358L20.849,34.078L17.137,38.792L21.303,42.072L25.015,37.358ZM20.849,34.078C19.968,33.385 18.87,33.079 17.803,33.164L18.278,39.145C17.904,39.175 17.493,39.072 17.138,38.793L20.849,34.078ZM17.804,33.164L12.307,33.598L12.78,39.58L18.277,39.145L17.804,33.164ZM12.307,33.598C12.92,33.55 13.824,33.909 14.089,34.951L8.275,36.434C8.829,38.605 10.894,39.729 12.78,39.58L12.307,33.598ZM14.089,34.951L12.846,30.079L7.033,31.562L8.276,36.434L14.089,34.951ZM12.847,30.079C12.546,28.902 11.758,27.981 10.786,27.451L7.915,32.72C7.539,32.515 7.176,32.124 7.033,31.561L12.847,30.079ZM10.786,27.451L6.057,24.874L3.186,30.143L7.915,32.72L10.786,27.451ZM6.058,24.874C6.769,25.262 7.304,26.294 6.819,27.33L1.385,24.787C0.401,26.889 1.379,29.158 3.186,30.143L6.058,24.874ZM6.819,27.33L8.974,22.726L3.539,20.183L1.385,24.787L6.819,27.33ZM8.974,22.725C9.486,21.629 9.486,20.371 8.974,19.275L3.539,21.817C3.298,21.302 3.298,20.698 3.539,20.183L8.974,22.725ZM8.974,19.275L6.819,14.67L1.385,17.213L3.539,21.817L8.974,19.275ZM6.819,14.67C7.304,15.706 6.769,16.738 6.058,17.126L3.186,11.857C1.379,12.842 0.401,15.111 1.385,17.213L6.819,14.67ZM6.058,17.126L10.786,14.549L7.915,9.28L3.186,11.857L6.058,17.126ZM10.786,14.549C11.758,14.019 12.546,13.099 12.846,11.921L7.033,10.439C7.176,9.875 7.539,9.485 7.915,9.28L10.786,14.549ZM12.846,11.921L14.089,7.049L8.276,5.566L7.033,10.438L12.846,11.921ZM14.089,7.049C13.824,8.091 12.919,8.45 12.307,8.402L12.78,2.42C10.894,2.271 8.829,3.395 8.275,5.566L14.089,7.049ZM12.307,8.402L17.804,8.836L18.277,2.855L12.78,2.42L12.307,8.402ZM17.804,8.836C18.87,8.92 19.968,8.616 20.849,7.922L17.137,3.208C17.493,2.927 17.904,2.825 18.277,2.855L17.804,8.836ZM20.849,7.922L25.015,4.642L21.303,-0.072L17.137,3.208L20.849,7.922Z" fill="#962203"/>
<path d="M19.601,20.715C18.373,19.602 16.476,19.695 15.363,20.923C14.251,22.151 14.344,24.048 15.572,25.161L19.601,20.715ZM21.862,26.813L19.847,29.036C20.991,30.072 22.734,30.072 23.877,29.036L21.862,26.813ZM34.567,19.347C35.794,18.235 35.887,16.337 34.775,15.11C33.662,13.882 31.765,13.789 30.537,14.902L34.567,19.347ZM15.572,25.161L19.847,29.036L23.877,24.59L19.601,20.715L15.572,25.161ZM23.877,29.036L34.567,19.347L30.537,14.902L19.847,24.59L23.877,29.036Z" fill="#962203"/>
</svg>
