<svg width="50" height="46" viewBox="0 0 50 46" fill="none" xmlns="http://www.w3.org/2000/svg" xmlns:xlink="http://www.w3.org/1999/xlink">
<path d="M25,-1C11.885,-1 1,9.161 1,22L7,22C7,12.747 14.919,5 25,5L25,-1ZM1,22C1,34.839 11.885,45 25,45L25,39C14.919,39 7,31.253 7,22L1,22ZM25,45C38.115,45 49,34.839 49,22L43,22C43,31.252 35.081,39 25,39L25,45ZM49,22C49,9.161 38.115,-1 25,-1L25,5C35.081,5 43,12.747 43,22L49,22Z" fill="#FFFFFF"/>
<path d="M6.452,32.786C5.4,34.065 5.584,35.956 6.863,37.008C8.143,38.061 10.034,37.877 11.086,36.597L6.452,32.786ZM38.914,36.597C39.967,37.877 41.857,38.061 43.137,37.008C44.416,35.956 44.6,34.065 43.548,32.786L38.914,36.597ZM8.769,34.691C11.086,36.597 11.085,36.598 11.084,36.6C11.084,36.6 11.082,36.601 11.082,36.602C11.08,36.604 11.079,36.605 11.078,36.607C11.075,36.61 11.073,36.613 11.071,36.615C11.067,36.62 11.065,36.623 11.063,36.625C11.059,36.629 11.06,36.628 11.065,36.622C11.076,36.61 11.103,36.58 11.149,36.533C11.24,36.439 11.402,36.279 11.639,36.075C12.113,35.667 12.885,35.081 13.988,34.481C16.175,33.29 19.742,32 25,32L25,26C18.708,26 14.159,27.556 11.119,29.211C9.608,30.033 8.488,30.87 7.723,31.529C7.34,31.859 7.047,32.144 6.837,32.361C6.732,32.47 6.647,32.561 6.584,32.633C6.552,32.669 6.525,32.7 6.503,32.725C6.492,32.738 6.482,32.75 6.474,32.76C6.47,32.765 6.466,32.769 6.462,32.774C6.46,32.776 6.458,32.778 6.457,32.78C6.456,32.781 6.455,32.782 6.454,32.783C6.453,32.784 6.452,32.786 8.769,34.691ZM25,32C30.258,32 33.824,33.29 36.012,34.481C37.115,35.081 37.887,35.667 38.361,36.075C38.598,36.279 38.76,36.439 38.851,36.533C38.897,36.58 38.924,36.61 38.935,36.622C38.94,36.628 38.941,36.629 38.937,36.625C38.936,36.623 38.933,36.62 38.929,36.615C38.927,36.613 38.925,36.61 38.922,36.607C38.921,36.606 38.92,36.604 38.918,36.602C38.918,36.601 38.917,36.6 38.916,36.6C38.915,36.598 38.914,36.597 41.231,34.691C43.548,32.786 43.547,32.784 43.546,32.783C43.545,32.782 43.544,32.781 43.543,32.78C43.542,32.778 43.54,32.776 43.538,32.774C43.534,32.769 43.531,32.765 43.526,32.76C43.518,32.749 43.508,32.738 43.497,32.725C43.475,32.7 43.448,32.669 43.416,32.633C43.353,32.561 43.268,32.469 43.163,32.361C42.953,32.144 42.66,31.859 42.277,31.529C41.512,30.87 40.392,30.033 38.881,29.211C35.841,27.556 31.292,26 25,26L25,32Z" fill="#FFFFFF"/>
<path d="M25,25C29.997,25 34.3,21.107 34.3,16L28.3,16C28.3,17.521 26.962,19 25,19L25,25ZM34.3,16C34.3,10.893 29.997,7 25,7L25,13C26.962,13 28.3,14.479 28.3,16L34.3,16ZM25,7C20.003,7 15.7,10.893 15.7,16L21.7,16C21.7,14.479 23.038,13 25,13L25,7ZM15.7,16C15.7,21.107 20.003,25 25,25L25,19C23.038,19 21.7,17.521 21.7,16L15.7,16Z" fill="#FFFFFF"/>
</svg>
