<svg width="46" height="42" viewBox="0 0 46 42" fill="none" xmlns="http://www.w3.org/2000/svg" xmlns:xlink="http://www.w3.org/1999/xlink">
<path d="M37.522,34.043L8.19,34.043L8.19,40.043L37.522,40.043L37.522,34.043ZM8.19,34.043C7.487,34.043 7,33.495 7,32.92L1,32.92C1,36.9 4.265,40.043 8.19,40.043L8.19,34.043ZM7,32.92L7,14.368L1,14.368L1,32.92L7,32.92ZM7,14.368C7,13.794 7.487,13.245 8.19,13.245L8.19,7.245C4.265,7.245 1,10.388 1,14.368L7,14.368ZM8.19,13.245L37.522,13.245L37.522,7.245L8.19,7.245L8.19,13.245ZM37.522,13.245C38.226,13.245 38.713,13.794 38.713,14.368L44.713,14.368C44.713,10.388 41.447,7.245 37.522,7.245L37.522,13.245ZM38.713,14.368L38.713,32.92L44.713,32.92L44.713,14.368L38.713,14.368ZM38.713,32.92C38.713,33.495 38.226,34.043 37.522,34.043L37.522,40.043C41.447,40.043 44.713,36.9 44.713,32.92L38.713,32.92Z" fill="#FFFFFF"/>
<path d="M15.38,10.245L15.38,3.237L9.38,3.237L9.38,10.245L15.38,10.245ZM15.38,3.237C15.38,4.256 14.554,5 13.638,5L13.638,-1C11.333,-1 9.38,0.851 9.38,3.237L15.38,3.237ZM13.638,5L32.075,5L32.075,-1L13.638,-1L13.638,5ZM32.075,5C31.158,5 30.332,4.256 30.332,3.237L36.332,3.237C36.332,0.851 34.38,-1 32.075,-1L32.075,5ZM30.332,3.237L30.332,10.245L36.332,10.245L36.332,3.237L30.332,3.237Z" fill="#FFFFFF"/>
<line x1="15.666" y1="2" x2="15.666" y2="10.245" stroke="#FFFFFF" stroke-width="3" stroke-miterlimit="3.999327"/>
<line x1="19.856" y1="2" x2="19.856" y2="10.245" stroke="#FFFFFF" stroke-width="3" stroke-miterlimit="3.999327"/>
<path d="M32.285,24.675C31.706,24.675 31.237,24.213 31.237,23.644C31.237,23.075 31.706,22.613 32.285,22.613C32.863,22.613 33.332,23.075 33.332,23.644C33.332,24.213 32.863,24.675 32.285,24.675Z" fill="#000000" stroke="#FFFFFF" stroke-width="3" stroke-miterlimit="3.999327" stroke-linecap="round" stroke-linejoin="round"/>
</svg>
