<svg width="36" height="40" viewBox="0 0 36 40" fill="none" xmlns="http://www.w3.org/2000/svg" xmlns:xlink="http://www.w3.org/1999/xlink">
<line x1="9.499" y1="30.667" x2="24.497" y2="30.667" stroke="#FFFFFF" stroke-width="3" stroke-miterlimit="3.999327" stroke-linecap="round" stroke-linejoin="round"/>
<line x1="11.999" y1="37" x2="21.997" y2="37" stroke="#FFFFFF" stroke-width="3" stroke-miterlimit="3.999327" stroke-linecap="round" stroke-linejoin="round"/>
<path d="M6.501,27.333C6.501,28.99 7.844,30.333 9.501,30.333C11.158,30.333 12.501,28.99 12.501,27.334L6.501,27.333ZM5.752,19.944L3.816,22.237L3.816,22.237L5.752,19.944ZM2.002,12.556L-0.997,12.611L-0.997,12.611L2.002,12.556ZM31.998,12.556L28.998,12.5L28.998,12.5L31.998,12.556ZM28.248,19.944L26.313,17.653L26.313,17.653L28.248,19.944ZM21.499,27.333C21.499,28.99 22.842,30.333 24.499,30.333C26.155,30.334 27.499,28.991 27.499,27.334L21.499,27.333ZM12.501,27.334C12.501,24.937 12.149,23.014 11.145,21.319C10.212,19.743 8.837,18.623 7.687,17.652L3.816,22.237C5.166,23.377 5.666,23.84 5.982,24.376C6.228,24.791 6.501,25.508 6.501,27.333L12.501,27.334ZM7.687,17.652C6.636,16.765 6.009,15.996 5.624,15.254C5.251,14.534 5.024,13.681 5.002,12.5L-0.997,12.611C-0.961,14.569 -0.563,16.355 0.298,18.016C1.149,19.657 2.367,21.013 3.816,22.237L7.687,17.652ZM5.002,12.5C4.959,10.195 5.8,8.509 7.474,7.287C9.284,5.967 12.349,5 17,5L17,-1C11.652,-1 7.158,0.091 3.939,2.44C0.584,4.886 -1.074,8.478 -0.997,12.611L5.002,12.5ZM17,5C21.651,5 24.716,5.967 26.526,7.287C28.2,8.509 29.041,10.195 28.998,12.5L34.997,12.611C35.074,8.478 33.416,4.886 30.061,2.44C26.842,0.091 22.348,-1 17,-1L17,5ZM28.998,12.5C28.976,13.681 28.749,14.534 28.375,15.254C27.991,15.996 27.364,16.765 26.313,17.653L30.184,22.236C31.632,21.013 32.851,19.657 33.702,18.017C34.563,16.355 34.961,14.57 34.997,12.611L28.998,12.5ZM26.313,17.653C25.163,18.624 23.788,19.743 22.855,21.319C21.852,23.014 21.499,24.936 21.499,27.333L27.499,27.334C27.499,25.508 27.772,24.791 28.018,24.376C28.335,23.84 28.835,23.376 30.184,22.236L26.313,17.653Z" fill="#FFFFFF"/>
</svg>
