<svg width="52" height="40" viewBox="0 0 52 40" fill="none" xmlns="http://www.w3.org/2000/svg" xmlns:xlink="http://www.w3.org/1999/xlink">
<path d="M24.339,10.088L8.335,23.269L8.335,37.496C8.335,37.864 8.481,38.217 8.741,38.478C9.002,38.738 9.355,38.885 9.724,38.885L19.451,38.859C19.818,38.858 20.17,38.71 20.429,38.45C20.688,38.19 20.833,37.838 20.833,37.47L20.833,29.162C20.833,28.794 20.979,28.441 21.24,28.18C21.5,27.92 21.853,27.773 22.222,27.773L27.777,27.773C28.146,27.773 28.499,27.92 28.759,28.18C29.02,28.441 29.166,28.794 29.166,29.162L29.166,37.464C29.166,37.647 29.201,37.828 29.271,37.997C29.34,38.166 29.442,38.32 29.571,38.449C29.701,38.579 29.854,38.681 30.023,38.752C30.191,38.822 30.372,38.858 30.555,38.858L40.279,38.885C40.647,38.885 41.001,38.738 41.261,38.478C41.522,38.217 41.668,37.864 41.668,37.496L41.668,23.26L25.667,10.088C25.479,9.936 25.245,9.853 25.003,9.853C24.761,9.853 24.527,9.936 24.339,10.088ZM49.619,19.047L42.362,13.065L42.362,1.042C42.362,0.765 42.253,0.5 42.057,0.305C41.862,0.11 41.597,0 41.321,0L36.46,0C36.183,0 35.918,0.11 35.723,0.305C35.528,0.5 35.418,0.765 35.418,1.042L35.418,7.345L27.646,0.951C26.9,0.337 25.965,0.001 24.999,0.001C24.033,0.001 23.097,0.337 22.351,0.951L0.378,19.047C0.273,19.134 0.185,19.241 0.121,19.362C0.057,19.483 0.018,19.615 0.005,19.752C-0.008,19.888 0.006,20.025 0.046,20.156C0.086,20.287 0.152,20.408 0.239,20.514L2.453,23.205C2.54,23.311 2.647,23.398 2.768,23.463C2.889,23.527 3.021,23.567 3.157,23.58C3.294,23.593 3.431,23.579 3.562,23.539C3.693,23.499 3.815,23.434 3.921,23.346L24.339,6.529C24.527,6.377 24.761,6.294 25.003,6.294C25.245,6.294 25.479,6.377 25.667,6.529L46.086,23.346C46.192,23.434 46.313,23.499 46.444,23.539C46.575,23.58 46.712,23.594 46.849,23.581C46.985,23.568 47.117,23.528 47.238,23.464C47.359,23.4 47.466,23.313 47.553,23.207L49.767,20.516C49.854,20.41 49.919,20.288 49.959,20.157C49.999,20.026 50.012,19.888 49.999,19.751C49.985,19.614 49.944,19.482 49.879,19.361C49.814,19.24 49.726,19.133 49.619,19.047Z" fill="#FFFFFF"/>
</svg>
