<svg width="36" height="42" viewBox="0 0 36 42" fill="none" xmlns="http://www.w3.org/2000/svg" xmlns:xlink="http://www.w3.org/1999/xlink">
<path d="M2.659,12.729L1.767,9.864L1.767,9.864L2.659,12.729ZM30.567,4.038L29.675,1.174L29.675,1.174L30.567,4.038ZM31.678,5.274L34.587,6.007L34.587,6.006L31.678,5.274ZM23.864,36.311L26.773,37.043L26.773,37.043L23.864,36.311ZM22.17,36.444L24.96,35.341L24.96,35.341L22.17,36.444ZM16.313,21.64L13.523,22.742L13.523,22.744L16.313,21.64ZM15.851,21.126L17.17,18.431L17.169,18.431L15.851,21.126ZM2.539,14.612L3.857,11.917L3.857,11.917L2.539,14.612ZM3.551,15.593L31.459,6.903L29.675,1.174L1.767,9.864L3.551,15.593ZM31.459,6.903C30.524,7.194 29.67,6.804 29.217,6.301C28.781,5.816 28.614,5.156 28.769,4.542L34.587,6.006C34.931,4.64 34.548,3.257 33.678,2.289C32.792,1.303 31.287,0.672 29.675,1.174L31.459,6.903ZM28.769,4.542L20.955,35.578L26.773,37.043L34.587,6.007L28.769,4.542ZM20.955,35.578C21.147,34.816 21.859,34.126 22.823,34.05C23.804,33.973 24.653,34.564 24.96,35.341L19.381,37.548C20.029,39.186 21.611,40.164 23.295,40.031C24.964,39.9 26.353,38.712 26.773,37.043L20.955,35.578ZM24.96,35.341L19.103,20.536L13.523,22.744L19.381,37.548L24.96,35.341ZM19.103,20.538C18.759,19.667 18.099,18.886 17.17,18.431L14.532,23.82C14.016,23.568 13.685,23.154 13.523,22.742L19.103,20.538ZM17.169,18.431L3.857,11.917L1.22,17.307L14.532,23.82L17.169,18.431ZM3.857,11.917C4.791,12.374 5.031,13.271 4.996,13.814C4.962,14.357 4.598,15.267 3.551,15.593L1.767,9.864C-0.096,10.444 -0.907,12.107 -0.992,13.432C-1.076,14.759 -0.488,16.471 1.22,17.307L3.857,11.917Z" fill="#FFFFFF"/>
</svg>
