<svg width="46" height="48" viewBox="0 0 46 48" fill="none" xmlns="http://www.w3.org/2000/svg" xmlns:xlink="http://www.w3.org/1999/xlink">
<path d="M16.667,47L29.333,47L29.333,41L16.667,41L16.667,47ZM19.667,44L19.667,32.333L13.667,32.333L13.667,44L19.667,44ZM16.667,41L5.267,41L5.267,47L16.667,47L16.667,41ZM5.267,41C6.499,41 7,42.006 7,42.6L1,42.6C1,44.741 2.635,47 5.267,47L5.267,41ZM7,42.6L7,33.733L1,33.733L1,42.6L7,42.6ZM7,33.733C7,34.327 6.499,35.333 5.267,35.333L5.267,29.333C2.635,29.333 1,31.593 1,33.733L7,33.733ZM5.267,35.333L16.667,35.333L16.667,29.333L5.267,29.333L5.267,35.333ZM32.333,44L32.333,16L26.333,16L26.333,44L32.333,44ZM29.333,47L40.733,47L40.733,41L29.333,41L29.333,47ZM40.733,47C43.365,47 45,44.741 45,42.6L39,42.6C39,42.006 39.501,41 40.733,41L40.733,47ZM45,42.6L45,3.4L39,3.4L39,42.6L45,42.6ZM45,3.4C45,1.26 43.365,-1 40.733,-1L40.733,5C39.501,5 39,3.994 39,3.4L45,3.4ZM40.733,-1L30.6,-1L30.6,5L40.733,5L40.733,-1ZM30.6,-1C27.968,-1 26.333,1.26 26.333,3.4L32.333,3.4C32.333,3.994 31.833,5 30.6,5L30.6,-1ZM26.333,3.4L26.333,16L32.333,16L32.333,3.4L26.333,3.4ZM29.333,13L17.933,13L17.933,19L29.333,19L29.333,13ZM17.933,13C15.301,13 13.667,15.26 13.667,17.4L19.667,17.4C19.667,17.994 19.166,19 17.933,19L17.933,13ZM13.667,17.4L13.667,32.333L19.667,32.333L19.667,17.4L13.667,17.4Z" fill="#FFFFFF"/>
</svg>
